<svg xmlns="http://www.w3.org/2000/svg" width="43" height="65" viewBox="0 0 43 64"><path style="stroke:none;fill-rule:nonzero;fill:#0acf83;fill-opacity:1" d="M10.754 64c5.93 0 10.746-4.777 10.746-10.668V42.668H10.754c-5.934 0-10.75 4.777-10.75 10.664C.004 59.222 4.82 64 10.754 64Zm0 0"/><path style="stroke:none;fill-rule:nonzero;fill:#a259ff;fill-opacity:1" d="M.004 32c0-5.887 4.816-10.668 10.75-10.668H21.5v21.336H10.754C4.82 42.668.004 37.887.004 32Zm0 0"/><path style="stroke:none;fill-rule:nonzero;fill:#f24e1e;fill-opacity:1" d="M.004 10.668C.004 4.778 4.82 0 10.754 0H21.5v21.332H10.754c-5.934 0-10.75-4.777-10.75-10.664Zm0 0"/><path style="stroke:none;fill-rule:nonzero;fill:#ff7262;fill-opacity:1" d="M21.5 0h10.746c5.934 0 10.75 4.777 10.75 10.668 0 5.887-4.816 10.664-10.75 10.664H21.5Zm0 0"/><path style="stroke:none;fill-rule:nonzero;fill:#1abcfe;fill-opacity:1" d="M42.996 32c0 5.887-4.816 10.668-10.75 10.668-5.93 0-10.746-4.781-10.746-10.668s4.816-10.668 10.746-10.668c5.934 0 10.75 4.781 10.75 10.668Zm0 0"/></svg>