<?xml version="1.0" encoding="UTF-8"?>
<svg xmlns="http://www.w3.org/2000/svg" xmlns:xlink="http://www.w3.org/1999/xlink" width="87px" height="65px" viewBox="0 0 86 65" version="1.1">
<g id="surface1">
<path style=" stroke:none;fill-rule:nonzero;fill:rgb(81.176471%,39.215686%,60.392157%);fill-opacity:1;" d="M 74.007812 37.339844 C 71 37.359375 68.398438 38.085938 66.214844 39.167969 C 65.40625 37.5625 64.601562 36.15625 64.464844 35.105469 C 64.316406 33.886719 64.128906 33.144531 64.316406 31.6875 C 64.5 30.230469 65.339844 28.167969 65.339844 27.996094 C 65.324219 27.84375 65.15625 27.101562 63.425781 27.082031 C 61.695312 27.066406 60.199219 27.421875 60.03125 27.878906 C 59.863281 28.335938 59.527344 29.386719 59.308594 30.46875 C 59.007812 32.058594 55.851562 37.695312 54.050781 40.660156 C 53.464844 39.507812 52.960938 38.492188 52.859375 37.679688 C 52.707031 36.460938 52.523438 35.714844 52.707031 34.261719 C 52.894531 32.804688 53.734375 30.738281 53.734375 30.570312 C 53.714844 30.417969 53.546875 29.671875 51.820312 29.65625 C 50.089844 29.640625 48.59375 29.996094 48.425781 30.453125 C 48.257812 30.910156 48.074219 31.992188 47.703125 33.042969 C 47.351562 34.089844 43.152344 43.503906 42.058594 45.957031 C 41.503906 47.210938 41.019531 48.207031 40.664062 48.886719 C 40.3125 49.5625 40.648438 48.9375 40.613281 49.003906 C 40.3125 49.578125 40.144531 49.902344 40.144531 49.902344 L 40.144531 49.917969 C 39.910156 50.339844 39.65625 50.746094 39.539062 50.746094 C 39.457031 50.746094 39.289062 49.613281 39.574219 48.054688 C 40.195312 44.789062 41.707031 39.695312 41.691406 39.507812 C 41.691406 39.421875 41.976562 38.527344 40.714844 38.070312 C 39.488281 37.613281 39.050781 38.375 38.953125 38.375 C 38.851562 38.375 38.765625 38.644531 38.765625 38.644531 C 38.765625 38.644531 40.128906 32.90625 36.164062 32.90625 C 33.675781 32.90625 30.25 35.632812 28.554688 38.121094 C 27.480469 38.710938 25.195312 39.964844 22.777344 41.300781 C 21.851562 41.808594 20.894531 42.351562 19.988281 42.84375 L 19.804688 42.640625 C 15 37.476562 6.113281 33.820312 6.484375 26.878906 C 6.617188 24.359375 7.492188 17.707031 23.550781 9.648438 C 36.703125 3.046875 47.234375 4.859375 49.0625 8.886719 C 51.667969 14.640625 43.4375 25.339844 29.765625 26.878906 C 24.558594 27.472656 21.820312 25.441406 21.128906 24.679688 C 20.410156 23.882812 20.308594 23.851562 20.039062 24.003906 C 19.601562 24.238281 19.871094 24.949219 20.039062 25.375 C 20.441406 26.441406 22.121094 28.335938 24.976562 29.285156 C 27.480469 30.113281 33.59375 30.570312 40.984375 27.691406 C 49.265625 24.460938 55.730469 15.488281 53.835938 7.988281 C 51.902344 0.355469 39.339844 -2.148438 27.464844 2.097656 C 20.390625 4.636719 12.730469 8.597656 7.222656 13.796875 C 0.671875 19.957031 -0.371094 25.339844 0.0664062 27.574219 C 1.597656 35.546875 12.496094 40.742188 16.863281 44.585938 C 16.644531 44.703125 16.445312 44.824219 16.257812 44.925781 C 14.074219 46.007812 5.761719 50.390625 3.679688 55.03125 C 1.328125 60.277344 4.046875 64.050781 5.863281 64.558594 C 11.472656 66.132812 17.21875 63.308594 20.324219 58.652344 C 23.414062 53.996094 23.046875 47.953125 21.617188 45.195312 L 21.566406 45.09375 L 23.28125 44.078125 C 24.390625 43.417969 25.480469 42.808594 26.4375 42.285156 C 25.902344 43.757812 25.515625 45.5 25.3125 48.039062 C 25.078125 51.019531 26.289062 54.878906 27.882812 56.402344 C 28.589844 57.0625 29.429688 57.078125 29.949219 57.078125 C 31.796875 57.078125 32.636719 55.539062 33.558594 53.691406 C 34.703125 51.441406 35.710938 48.835938 35.710938 48.835938 C 35.710938 48.835938 34.449219 55.894531 37.894531 55.894531 C 39.152344 55.894531 40.414062 54.25 40.984375 53.40625 L 40.984375 53.421875 C 40.984375 53.421875 41.019531 53.371094 41.085938 53.253906 C 41.15625 53.148438 41.222656 53.039062 41.285156 52.929688 L 41.285156 52.898438 C 41.789062 52.015625 42.914062 50.003906 44.59375 46.667969 C 46.761719 42.367188 48.84375 36.984375 48.84375 36.984375 C 48.84375 36.984375 49.046875 38.304688 49.667969 40.472656 C 50.039062 41.757812 50.84375 43.164062 51.464844 44.535156 C 50.960938 45.246094 50.660156 45.652344 50.660156 45.652344 L 50.675781 45.667969 C 50.273438 46.210938 49.820312 46.785156 49.347656 47.363281 C 47.636719 49.425781 45.585938 51.78125 45.316406 52.457031 C 45 53.253906 45.066406 53.84375 45.6875 54.320312 C 46.140625 54.65625 46.945312 54.726562 47.804688 54.65625 C 49.347656 54.554688 50.425781 54.167969 50.960938 53.929688 C 51.800781 53.625 52.757812 53.167969 53.683594 52.492188 C 55.363281 51.238281 56.386719 49.460938 56.285156 47.089844 C 56.234375 45.789062 55.816406 44.5 55.296875 43.28125 C 55.445312 43.0625 55.597656 42.84375 55.75 42.605469 C 58.402344 38.695312 60.453125 34.394531 60.453125 34.394531 C 60.453125 34.394531 60.652344 35.714844 61.273438 37.882812 C 61.59375 38.984375 62.234375 40.183594 62.804688 41.371094 C 60.316406 43.417969 58.753906 45.789062 58.21875 47.34375 C 57.226562 50.222656 58 51.527344 59.460938 51.832031 C 60.117188 51.964844 61.054688 51.660156 61.761719 51.355469 C 62.636719 51.070312 63.695312 50.578125 64.667969 49.851562 C 66.347656 48.597656 67.960938 46.855469 67.875 44.5 C 67.824219 43.417969 67.539062 42.351562 67.152344 41.335938 C 69.269531 40.457031 72.007812 39.949219 75.484375 40.371094 C 82.960938 41.25 84.4375 45.957031 84.152344 47.921875 C 83.867188 49.886719 82.304688 50.96875 81.785156 51.304688 C 81.261719 51.628906 81.09375 51.746094 81.144531 51.984375 C 81.210938 52.339844 81.449219 52.320312 81.902344 52.253906 C 82.523438 52.152344 85.832031 50.648438 85.964844 47.023438 C 86.167969 42.367188 81.785156 37.289062 74.007812 37.339844 Z M 16.359375 56.925781 C 13.890625 59.652344 10.414062 60.683594 8.9375 59.804688 C 7.339844 58.871094 7.960938 54.859375 11 51.964844 C 12.851562 50.207031 15.25 48.582031 16.832031 47.582031 C 17.183594 47.363281 17.71875 47.039062 18.359375 46.652344 C 18.460938 46.582031 18.527344 46.550781 18.527344 46.550781 C 18.644531 46.480469 18.777344 46.398438 18.914062 46.3125 C 20.039062 50.441406 18.964844 54.066406 16.359375 56.925781 Z M 34.417969 44.550781 C 33.558594 46.667969 31.746094 52.101562 30.65625 51.796875 C 29.714844 51.542969 29.140625 47.429688 30.46875 43.367188 C 31.140625 41.320312 32.570312 38.882812 33.410156 37.933594 C 34.769531 36.410156 36.246094 35.902344 36.617188 36.527344 C 37.054688 37.339844 34.953125 43.230469 34.417969 44.550781 Z M 49.316406 51.730469 C 48.945312 51.914062 48.609375 52.050781 48.460938 51.949219 C 48.339844 51.882812 48.609375 51.628906 48.609375 51.628906 C 48.609375 51.628906 50.472656 49.613281 51.214844 48.683594 C 51.632812 48.140625 52.136719 47.515625 52.675781 46.804688 L 52.675781 47.007812 C 52.675781 49.445312 50.355469 51.070312 49.316406 51.730469 Z M 60.804688 49.089844 C 60.535156 48.886719 60.570312 48.257812 61.476562 46.296875 C 61.828125 45.515625 62.636719 44.214844 64.03125 42.976562 C 64.199219 43.484375 64.296875 43.976562 64.28125 44.433594 C 64.265625 47.480469 62.113281 48.613281 60.804688 49.089844 Z M 60.804688 49.089844 "/>
</g>
</svg>
