<svg xmlns="http://www.w3.org/2000/svg" width="66" height="65"><path style="stroke:none;fill-rule:nonzero;fill:#2489ca;fill-opacity:1" d="M1.887 23.234s-1.563-1.129.312-2.636l4.367-3.918s1.25-1.317 2.57-.168l40.31 30.605v14.676s-.02 2.305-2.966 2.05Zm0 0"/><path style="stroke:none;fill-rule:nonzero;fill:#1070b3;fill-opacity:1" d="m12.277 32.695-10.39 9.473s-1.067.797 0 2.223l4.824 4.398s1.144 1.234 2.836-.168l11.015-8.379Zm0 0"/><path style="stroke:none;fill-rule:nonzero;fill:#0877b9;fill-opacity:1" d="m30.516 32.773 19.054-14.59-.125-14.597s-.812-3.188-3.527-1.531L20.563 25.199Zm0 0"/><path style="stroke:none;fill-rule:nonzero;fill:#3c99d4;fill-opacity:1" d="M46.48 63.863c1.106 1.137 2.446.766 2.446.766l14.847-7.34c1.903-1.297 1.637-2.91 1.637-2.91v-43.82c0-1.926-1.969-2.594-1.969-2.594L50.574 1.742c-2.812-1.742-4.656.313-4.656.313s2.371-1.707 3.527 1.53v57.942c0 .399-.082.79-.254 1.141-.336.687-1.074 1.328-2.836 1.059Zm0 0"/></svg>