<svg xmlns="http://www.w3.org/2000/svg" width="35" height="35"><path style="stroke:none;fill-rule:nonzero;fill:#000;fill-opacity:1" d="M31.527 6.043H3.473A3.478 3.478 0 0 0 0 9.516v15.968a3.478 3.478 0 0 0 3.473 3.473h28.054A3.478 3.478 0 0 0 35 25.484V9.516a3.478 3.478 0 0 0-3.473-3.473Zm1.16 3.473v15.968c0 .184-.054.352-.128.504l-8.18-8.18 8.305-8.304c0 .004.004.008.004.012ZM2.314 25.484V9.516l.003-.012 8.305 8.305-8.18 8.18a1.147 1.147 0 0 1-.128-.505Zm15.542-4.425a.52.52 0 0 1-.71 0l-12.7-12.7h26.11Zm-5.597-1.614 3.25 3.246a2.785 2.785 0 0 0 1.992.829c.754 0 1.46-.293 1.992-.829l3.25-3.246 7.2 7.196H5.058Zm0 0"/></svg>