<svg xmlns="http://www.w3.org/2000/svg" width="35" height="35"><path style="stroke:none;fill-rule:nonzero;fill:#00aff0;fill-opacity:1" d="M33.762 20.371c-.012.063-.02.125-.032.188l-.058-.352c.031.055.058.11.09.164.18-.98.273-1.988.273-2.996 0-2.23-.433-4.395-1.297-6.43a16.412 16.412 0 0 0-3.543-5.254 16.412 16.412 0 0 0-5.254-3.543A16.378 16.378 0 0 0 17.508.852c-1.051 0-2.102.097-3.13.293 0 0-.003 0-.007.003.059.028.117.055.172.086l-.344-.05.172-.036A9.758 9.758 0 0 0 9.785 0a9.721 9.721 0 0 0-6.918 2.867A9.721 9.721 0 0 0 0 9.785c0 1.664.43 3.297 1.23 4.742.012-.058.02-.12.032-.18l.058.348c-.03-.054-.058-.113-.09-.168a16.56 16.56 0 0 0-.25 2.848c0 2.234.438 4.398 1.301 6.434a16.464 16.464 0 0 0 3.54 5.253 16.428 16.428 0 0 0 5.257 3.543c2.035.864 4.2 1.301 6.43 1.301.972 0 1.945-.09 2.894-.258-.054-.03-.109-.058-.168-.093l.356.062c-.063.012-.125.02-.188.031a9.779 9.779 0 0 0 4.817 1.266 9.709 9.709 0 0 0 6.914-2.863A9.705 9.705 0 0 0 35 25.133c0-1.668-.43-3.309-1.238-4.762ZM17.574 27.5c-5.87 0-8.496-2.887-8.496-5.05 0-1.11.82-1.887 1.95-1.887 2.511 0 1.859 3.605 6.546 3.605 2.403 0 3.727-1.3 3.727-2.637 0-.8-.395-1.691-1.977-2.078l-5.222-1.305c-4.204-1.054-4.97-3.328-4.97-5.464 0-4.438 4.18-6.106 8.102-6.106 3.618 0 7.875 1.996 7.875 4.66 0 1.14-.988 1.805-2.113 1.805-2.144 0-1.75-2.969-6.07-2.969-2.145 0-3.332.969-3.332 2.36 0 1.386 1.691 1.828 3.164 2.164l3.863.859c4.234.941 5.309 3.414 5.309 5.742 0 3.606-2.766 6.301-8.356 6.301Zm2.66 6.055c.059.035.114.062.168.093l.188-.03ZM33.73 20.559c.012-.063.02-.125.032-.188-.032-.055-.059-.11-.09-.164ZM1.262 14.348c-.012.058-.02.12-.032.18.032.054.06.113.09.167ZM14.543 1.234a2.35 2.35 0 0 0-.172-.086l-.172.036Zm0 0"/></svg>