<svg xmlns="http://www.w3.org/2000/svg" width="82" height="65" viewBox="0 0 81 65"><path style="stroke:none;fill-rule:evenodd;fill:#7952b3;fill-opacity:1" d="M16.824.008c-4.62 0-8.043 4.074-7.89 8.492.148 4.246-.043 9.742-1.418 14.227-1.38 4.496-3.707 7.343-7.516 7.71v4.125c3.809.368 6.137 3.215 7.516 7.711 1.375 4.485 1.566 9.98 1.418 14.227-.153 4.418 3.27 8.492 7.89 8.492h47.36c4.62 0 8.039-4.074 7.886-8.492-.148-4.246.043-9.742 1.418-14.227 1.38-4.496 3.703-7.343 7.512-7.71v-4.126c-3.809-.367-6.133-3.214-7.512-7.71-1.375-4.485-1.566-9.98-1.418-14.227.153-4.418-3.265-8.492-7.886-8.492Zm38.09 40.004c0 6.082-4.504 9.77-11.98 9.77h-12.73a1.375 1.375 0 0 1-1.372-1.38v-31.8c0-.766.613-1.383 1.371-1.383H42.86c6.235 0 10.328 3.398 10.328 8.62 0 3.665-2.753 6.95-6.261 7.524v.192c4.773.527 7.988 3.855 7.988 8.457Zm-13.371-20.41h-7.258v10.324h6.113c4.727 0 7.332-1.918 7.332-5.344 0-3.21-2.242-4.98-6.187-4.98ZM34.285 34.02v11.378h7.528c4.917 0 7.523-1.988 7.523-5.722 0-3.739-2.676-5.656-7.84-5.656Zm0 0"/></svg>