<svg xmlns="http://www.w3.org/2000/svg" width="29" height="65" viewBox="0 0 29 64"><path style="stroke:none;fill-rule:nonzero;fill:#d34a47;fill-opacity:1" d="m22.344 62.05.613-10.226 1.7-2.894s-3.864 1.578-10.333 1.578c-6.465 0-10.27-1.547-10.27-1.547l1.903 3.156.672 9.934c0 1.062 3.52 1.926 7.855 1.926 4.34 0 7.86-.864 7.86-1.926m-1.942-47.754 1.293-5.09 7.145-7.504L26.957.102l-7.566 7.996-1.496 6.082a97.7 97.7 0 0 0-3.383-.059c-7.969 0-14.426.906-14.426 2.027 0 1.118 6.457 2.024 14.426 2.024 7.965 0 14.422-.906 14.422-2.024 0-.824-3.5-1.535-8.532-1.851"/><path style="stroke:none;fill-rule:nonzero;fill:#fff;fill-opacity:1" d="M19.652 17.148s-.277.063-1.101.067c-.82.004-1.403-.004-1.637-.215a.378.378 0 0 1-.098-.246c.004-.145.106-.23.239-.285l.125.195c-.055.02-.086.04-.086.063 0 .113.84.187 1.484.18.64-.009 1.418-.063 1.418-.173 0-.03-.058-.062-.16-.086l.125-.195c.168.055.312.152.312.324-.003.297-.375.34-.62.371"/><path style="stroke:none;fill-rule:nonzero;fill:#d34a47;fill-opacity:1" d="M28.824 1.719c.18-.207-.094-.739-.61-1.184-.515-.45-1.077-.64-1.257-.433-.18.207.09.734.61 1.183.515.445 1.078.64 1.257.434M22 37.074c-.168-1.629 3.563-3.984 2.605-4.058-2.062.117-3.09 2.414-4.125 4.816-.382.883-1.683 4.637-2.535 4.176-.855-.461 1.106-3.551 1.653-5.387-.633.465-2.957 2.266-3.555.578-.961.817-3.02 1.258-2.785-.886-.516.906-1.664 2.171-3.043 1.644-1.813-.687 1.05-6.45 1.762-6.16.71.289-.145 1.605-.368 2.113-.492 1.121-1.062 2.531-.683 2.82.652.497 2.426-1.87 2.465-1.921.332-.438 1.273-3.297 2.035-2.97.761.329-1.899 4.106-.903 4.856.2.149 1.02-.093 1.52-.633.324-.351.21-1.12 1.289-3.687 1.078-2.563 2.035-5.754 2.773-5.512.739.242.133 1.883-.132 2.492-1.243 2.868-3.395 7.602-2.38 7.247 1.012-.36 1.54-.38 2.536-1.54.992-1.16.945-3.07 1.605-3.03.664.038.551.652.391 1.12.652-.746 3.09-2.312 3.676-.761.695 1.84-3.485 4.492-2.442 4.355 1.016-.129 2.664-1.172 3.368-2.117l1.933-17.371s-1.95 1.61-14.336 1.61c-12.39 0-14.136-1.579-14.136-1.579l1.648 15.856c.875-2.48 2.95-7.5 6.223-7.333 1.492.079 3.48 2.942 1.777 3.036-.723.043-.797-1.426-1.649-1.645-.617-.152-1.472.348-2.027.887-1.105 1.082-3.484 5.34-3.168 7.465.399 2.707 3.742-.942 4.309-2.024.398-.765.668-3.023 1.539-2.789.87.238-.078 2.57-.707 4.637-.711 2.316-1.086 4.758-1.973 4.476-.89-.28.559-3.27.508-3.792-.836.769-2.379 2.718-4.348 1.753l1.024 9.844s2.719 2.149 10.914 2.149c8.191 0 11.012-2.114 11.012-2.114l1.27-11.406c-1.04 1.012-4.33 2.809-4.54.785"/></svg>